<svg xmlns="http://www.w3.org/2000/svg" version="1.1" xmlns:xlink="http://www.w3.org/1999/xlink" xmlns:svgjs="http://svgjs.com/svgjs" width="1000" height="1000"><rect width="1000" height="1000" rx="500" ry="500" fill="#00e1ff"></rect><g transform="matrix(28.125,0,0,28.125,50,50)"><svg xmlns="http://www.w3.org/2000/svg" version="1.1" xmlns:xlink="http://www.w3.org/1999/xlink" xmlns:svgjs="http://svgjs.com/svgjs" width="32" height="32"><svg xmlns="http://www.w3.org/2000/svg" width="32" height="32"><g fill="none" fill-rule="evenodd"><path d="M0 32h32V0H0z"></path><path d="M7.975 7L6 22.731l3.225.394L11.168 7.39 7.975 7zM21.67 23.548l-.14 1.08 3.032.372L26 13.327l-3.032-.37-.141 1.132h-.35c-.455-.799-1.67-1.88-3.961-1.88-3.195 0-5.546 2.34-5.968 5.54-.04.32-.06.64-.06.94 0 3.06 2.09 5.58 5.345 5.94.18.02.361.02.542.02 1.367 0 2.392-.58 2.914-1.1h.382zm-5.124-2.48c-.583-.42-.844-1.04-.844-1.98 0-1.18.362-2.64.964-3.26.422-.42 1.025-.62 1.849-.62 1.166 0 2.592.3 3.195.92.402.4.583.96.583 1.74 0 1.12-.322 2.7-1.025 3.36-.402.36-.944.52-1.708.52-1.044 0-2.354-.241-3.014-.68z" fill="#000"></path></g></svg></svg></g></svg>